<svg xmlns="http://www.w3.org/2000/svg" viewBox="0 0 100 100">
  <circle cx="50" cy="50" r="48" fill="#25D366"/>
  <path d="M50 15C31.2 15 16 30.2 16 49c0 6.7 1.8 13 5 18.4l-5.3 17 17.5-4.9A34 34 0 0050 83c18.8 0 34-15.2 34-34S68.8 15 50 15zm18.2 46.4c-.8 2.2-5.6 4.2-7.6 4.5-2 .3-4.3.1-6.4-.5a55 55 0 01-5.8-2.1c-10.2-4.4-16.9-14.8-17.4-15.4-.5-.6-4-5-4-9.6s2.5-6.9 3.4-7.8c.9-.9 1.9-1.2 2.5-1.2.6 0 1.3 0 1.8.03.6.02 1.4-.2 2.2 1.7.8 1.9 2.7 6.6 2.9 7 .2.5.4 1 .1 1.6-.3.6-.5 1-1 1.5-.5.6-1 1.2-1.5 1.6-.5.5-1 .9-.5 1.8.5.9 2.2 3.6 4.7 5.8 3.2 2.8 5.9 3.7 6.8 4.1.9.4 1.4.3 1.9-.2.5-.5 2.2-2.6 2.8-3.5.6-.9 1.2-.8 2-.4.8.4 5.1 2.4 6 2.8.9.4 1.4.7 1.6 1 .2.4.2 2.3-.6 4.5z" fill="white"/>
</svg>
